<?xml version="1.0" encoding="utf-8"?>
<!-- Generator: Adobe Illustrator 16.0.0, SVG Export Plug-In . SVG Version: 6.00 Build 0)  -->
<!DOCTYPE svg PUBLIC "-//W3C//DTD SVG 1.1//EN" "http://www.w3.org/Graphics/SVG/1.1/DTD/svg11.dtd">
<svg version="1.1" id="Layer_1" xmlns="http://www.w3.org/2000/svg" xmlns:xlink="http://www.w3.org/1999/xlink" x="0px" y="0px"
	 width="350px" height="350px" viewBox="0 0 350 350" enable-background="new 0 0 350 350" xml:space="preserve">
<path opacity="0.3" fill="#027599" d="M318.156,177.278c0,83.396-65.395,151.389-148.121,151.389
	c-82.726,0-149.789-67.604-149.789-151"/>
<g>
	<circle fill="#03AEE5" cx="170.901" cy="175.305" r="149.568"/>
	<path opacity="0.3" fill="#027599" d="M168.51,325.237c72.779-2.636,100.987-36.389,119.567-58.16
		c39.395-46.164,31.391-107.264,31.391-107.264l-51.863-50.355l-8.162,4.854l-44.081-44.138l-34.292,21.048l-33.15,21.049
		l17.728,17.568l-20.781,4.542c0,0,0.235,34.087-18.186,45.488c0,0-11.126,10.168-27.541-3.498l18.979,19.452L104.72,261.3
		L168.51,325.237z"/>
	<g>
		<path fill="#FFFFFF" d="M260.576,250.104c41.599-1.768,35.064-48.578,35.064-48.578c-2.309-36.747-35.992-56.064-35.992-56.064
			h-21.185h-2.881h-20.288c0,0-34.58,19.318-36.889,56.064c0,0-6.51,46.341,35.065,48.578
			C213.472,250.104,234.229,251.223,260.576,250.104z"/>
		<path fill="#FFFFFF" d="M218.157,140.572c6.57-13.14-11.348-32.253-11.348-32.253s11.049,12.841,31.654,0
			c0,0,11.05,12.841,31.656,0c0,0-25.982,20.308-14.037,32.253H218.157z"/>
		<path fill="#FFFFFF" d="M149.318,112.029c8.526-17.053-14.729-41.858-14.729-41.858s14.342,16.666,41.084,0
			c0,0,14.343,16.666,41.086,0c0,0-30.508,23.213-22.01,41.858H149.318z"/>
		<path fill="#FFFFFF" d="M100.89,130.76c-25.754-0.205-18.6-18.599-18.6-18.599c9.811-19.953,43.127,8.38,43.127,8.38
			C112.744,131.782,100.89,130.76,100.89,130.76z M123.986,166.12c-10.321,9.402-15.534-0.715-15.534-0.715
			c-5.62-16.351,23.301-21.461,23.301-21.461C132.468,157.741,123.986,166.12,123.986,166.12z M209.19,134.381
			c-2.841-6.109-11.591-18.745-11.591-18.745h-47.655h-8.586c-12.875-16.352-34.133-22.074-34.133-22.074
			c-36.381-8.79-39.039,19.826-39.039,19.826c-1.431,34.542,33.93,30.454,33.93,30.454c-17.368,16.663-4.498,30.19-4.498,30.19
			c11.998,14.462,27.798,7.36,27.798,7.36c21.461-10.628,20.848-47.011,20.848-47.011h0.063H209.19z"/>
		<path fill="#FFFFFF" d="M211.976,138.331c0,0,33.521,25.072,36.517,72.763c0,0,8.449,60.147-45.511,63.049
			c0,0-70.302,7.33-95.111-11.268c0,0-30.249-23.806-10.355-80.489c0,0,21.449,22.34,42.786-7.537
			c5.515-7.723,9.924-16.998,10.355-36.518H211.976z"/>
	</g>
	<path fill="#00ADE4" d="M197.903,190.007c0,0-1.533-15.942-17.476-15.942v-6.787h-13.183v6.991c0,0-18.499,1.839-17.578,18.089
		c0,0-0.307,12.468,15.125,16.352l15.737,4.292c0,0,10.528,2.76,4.293,11.753c0,0-8.789,8.584-21.154,0c0,0-2.964-2.658-3.066-5.11
		h-12.877c0,0,1.329,16.965,19.521,19.418v6.643h13.183v-6.745c0,0,19.725-0.817,19.315-20.849c0,0-0.102-14.716-16.25-17.578
		c0,0-22.074-3.27-21.358-9.504c0,0-1.125-8.073,15.432-6.438c0,0,5.314,1.124,6.438,5.621L197.903,190.007z"/>
</g>
</svg>
